# xmcd
#
# Track frame offsets:
#	200
#	9732
#	22352
#	32657
#	43132
#	55435
#	64937
#	74445
#	88405
#	100787
#
# Disc length: 1454 seconds
#
# Revision: 0
# Processed by: cddbd v1.5.1PL0 Copyright (c) Steve Scherf et al.
# Submitted via: dBpowerAMP V4.0
#
DISCID=9405ac0a
DTITLE=Deborah Ann - Country Piano Classics
DYEAR=1900
DGENRE=Country
TTITLE0=Snowbird
TTITLE1=I can't help it if I'm still in love with you
TTITLE2=I never promised you a rose garden
TTITLE3=For the good times
TTITLE4=Please help me I'm falling
TTITLE5=Crazy
TTITLE6=Back in baby's arms
TTITLE7=Before the next teardrop falls
TTITLE8=I fall to pieces
TTITLE9=Wrong road again
EXTD=Uffe Hassing Jacobsen
EXTT0=
EXTT1=
EXTT2=
EXTT3=
EXTT4=
EXTT5=
EXTT6=
EXTT7=
EXTT8=
EXTT9=
PLAYORDER=
